<svg xmlns="http://www.w3.org/2000/svg" width="640" height="420" viewBox="0 0 640 420" role="img" aria-hidden="true"><rect width="640" height="420" fill="#F8FAFC"/><rect x="40" y="40" width="560" height="340" rx="18" fill="#fff" stroke="#E5E9F0" stroke-width="2"/><rect x="70" y="70" width="160" height="18" rx="6" fill="#111827" opacity="0.85"/><rect x="70" y="100" width="100" height="12" rx="5" fill="#16A34A" opacity="0.6"/><rect x="70" y="150" width="500" height="42" rx="10" fill="#F8FAFC" stroke="#E5E9F0"/><rect x="90" y="165" width="140" height="12" rx="6" fill="#C9D0DC"/><rect x="450" y="162" width="80" height="18" rx="9" fill="#155EEF" opacity="0.15"/><rect x="70" y="210" width="500" height="42" rx="10" fill="#F8FAFC" stroke="#E5E9F0"/><rect x="90" y="225" width="140" height="12" rx="6" fill="#C9D0DC"/><rect x="450" y="222" width="80" height="18" rx="9" fill="#155EEF" opacity="0.15"/><rect x="70" y="270" width="500" height="42" rx="10" fill="#F8FAFC" stroke="#E5E9F0"/><rect x="90" y="285" width="140" height="12" rx="6" fill="#C9D0DC"/><rect x="450" y="282" width="80" height="18" rx="9" fill="#155EEF" opacity="0.15"/></svg>