<svg xmlns="http://www.w3.org/2000/svg" width="1200" height="630" viewBox="0 0 1200 630" role="img" aria-hidden="true"><rect width="1200" height="630" fill="#111827"/><circle cx="1000" cy="120" r="360" fill="#155EEF" opacity="0.35"/>
    <g transform="translate(680,220) scale(1.3)">
      <ellipse cx="210" cy="238" rx="190" ry="16" fill="#000" opacity="0.08"/>
      <path d="M40 190 Q55 120 130 108 L305 108 Q365 118 392 178 L400 220 Q400 236 384 236 L36 236 Q20 236 20 220 Z" fill="#155EEF"/>
      <path d="M120 118 Q150 90 195 90 L275 90 Q315 92 340 118 L352 158 L108 158 Z" fill="#155EEF"/>
      <path d="M132 122 Q158 100 196 100 L270 100 Q302 102 322 122 L330 150 L124 150 Z" fill="#CFE0FF" opacity="0.9"/>
      <line x1="222" y1="100" x2="222" y2="150" stroke="#155EEF" stroke-width="4"/>
      <circle cx="118" cy="236" r="34" fill="#1F2937"/>
      <circle cx="118" cy="236" r="15" fill="#9CA3AF"/>
      <circle cx="322" cy="236" r="34" fill="#1F2937"/>
      <circle cx="322" cy="236" r="15" fill="#9CA3AF"/>
      <rect x="356" y="176" width="26" height="12" rx="3" fill="#FFD166"/>
      <rect x="16" y="180" width="20" height="10" rx="3" fill="#FF6B6B"/>
    </g><text x="80" y="260" font-family="Inter, sans-serif" font-size="58" font-weight="800" fill="#fff">RenewPath</text><text x="80" y="320" font-family="Inter, sans-serif" font-size="26" font-weight="500" fill="#B6BECC">Renew Smarter. Compare Better. Drive Confidently.</text></svg>